<?xml version="1.0" encoding="utf-8"?>
<!-- Generator: Adobe Illustrator 21.0.0, SVG Export Plug-In . SVG Version: 6.00 Build 0)  -->
<svg version="1.1" id="Слой_1" xmlns="http://www.w3.org/2000/svg" xmlns:xlink="http://www.w3.org/1999/xlink" x="0px" y="0px" viewBox="0 0 428.5 146.3" style="enable-background:new 0 0 428.5 146.3;" xml:space="preserve">
	<style type="text/css">
		.st0 {
			fill: url("#wave-2_1_");
		}
		.st1 {
			fill: #B13CD4;
		}
		@keyframes wave-1 {
			0% {
				transform: translateX(0);
			}

			33% {
				transform: translateX(10px);
			}

			66% {
				transform: translateX(-10px);
			}

			100% {
				transform: translateX(0);
			}
		}
		@keyframes wave-2 {
			0% {
				transform: translateX(0);
			}

			33% {
				transform: translateX(-10px);
			}

			66% {
				transform: translateX(10px);
			}

			100% {
				transform: translateX(0);
			}
		}

		#wave-1 {
			animation: wave-1 5s;
		}

		#wave-2 {
			animation: wave-2 5s;
		}
	</style>
	<title>background-total</title>
	<g id="united-wave">

		<linearGradient id="wave-2_1_" gradientUnits="userSpaceOnUse" x1="214.5" y1="3" x2="214.5" y2="148.2819" gradientTransform="matrix(1 0 0 -1 0 148)">
			<stop offset="0" style="stop-color:#432A9D"/>
			<stop offset="8.000000e-02" style="stop-color:#4B2C9D"/>
			<stop offset="0.22" style="stop-color:#60309C"/>
			<stop offset="0.38" style="stop-color:#84379A"/>
			<stop offset="0.56" style="stop-color:#B54298"/>
			<stop offset="0.76" style="stop-color:#F14E95"/>
		</linearGradient>
		<path
			id="wave-2"
			class="st0"
			d="M428.5,40.5c-22.1-6.9-40-12.7-54-17.5l0,0c-0.1,0-12.2-5.8-36-10c-14.7-2.6-23.5-4.1-35-2
		c-8.7,1.6-7.6,3.2-27,9c-10.3,3.1-16.9,5-26,6c-7.6,0.8-15.4,0.8-23,0c-14.1-1.4-27.9-4.7-41-10c-9.9-3.8-9.9-4.5-20-8
		c-6.4-2.2-16-5.5-26.4-7.1c-25.4-4-46.6,3.2-54.6,6.1c-7,2.6-13.5,5.8-26,12c-6,3-19.1,9.7-33,15c-5.4,2.2-11.2,3.5-17,4
		c-3,0.2-6,0.2-9,0v107c142.3,0,284.7,0,427,0C427.8,110.2,428.2,75.3,428.5,40.5z"/>
		<path
			id="wave-1"
			class="st1"
			d="M428,75.8c-45.6-25.2-81.8-38.5-94-39c-6.4-0.3-12.8,0.4-19,2c-4.1,1.3-8.2,3-12,5
		c-5.9,2.9-11.6,6.3-17,10c-19,12.4-42.4,12-44,12c-12.6-0.3-24.3-4.1-27-5c-10.4-3.3-16.8-7.1-24-11c-21.6-11.6-33.8-18.2-47-21
		c-24.3-5.1-45.9,3.7-54,7c-12.5,5.1-26.2,13.6-43,24c-9.8,6.1-19,12.2-31,11c-5.7-0.7-11.2-2.7-16-6l0.5,81.5h428L428,75.8z"/>
	</g>
</svg>
